<svg xmlns="http://www.w3.org/2000/svg" width="24.886" height="24.886" viewBox="0 0 24.886 24.886">
  <path id="Icon_ionic-ios-close-circle" data-name="Icon ionic-ios-close-circle" d="M15.818,3.375A12.443,12.443,0,1,0,28.261,15.818,12.441,12.441,0,0,0,15.818,3.375Zm3.153,16.948L15.818,17.17l-3.153,3.153a.956.956,0,1,1-1.352-1.352l3.153-3.153-3.153-3.153a.956.956,0,0,1,1.352-1.352l3.153,3.153,3.153-3.153a.956.956,0,0,1,1.352,1.352L17.17,15.818l3.153,3.153a.96.96,0,0,1,0,1.352A.95.95,0,0,1,18.971,20.323Z" transform="translate(-3.375 -3.375)" fill="#b4b4b4"/>
</svg>
